<?xml version="1.0" encoding="UTF-8" standalone="no"?>
<svg
   xmlns:dc="http://purl.org/dc/elements/1.1/"
   xmlns:cc="http://creativecommons.org/ns#"
   xmlns:rdf="http://www.w3.org/1999/02/22-rdf-syntax-ns#"
   xmlns:svg="http://www.w3.org/2000/svg"
   xmlns="http://www.w3.org/2000/svg"
   xmlns:sodipodi="http://sodipodi.sourceforge.net/DTD/sodipodi-0.dtd"
   xmlns:inkscape="http://www.inkscape.org/namespaces/inkscape"
   sodipodi:docname="faccia.svg"
   inkscape:version="1.0 (4035a4fb49, 2020-05-01)"
   id="svg8"
   version="1.1"
   viewBox="0 0 28.749372 52.455463"
   height="52.455463mm"
   width="28.749372mm">
  <defs
     id="defs2" />
  <sodipodi:namedview
     inkscape:window-maximized="1"
     inkscape:window-y="-8"
     inkscape:window-x="-8"
     inkscape:window-height="1027"
     inkscape:window-width="1920"
     showgrid="false"
     inkscape:document-rotation="0"
     inkscape:current-layer="layer1"
     inkscape:document-units="mm"
     inkscape:cy="174.28062"
     inkscape:cx="55.688015"
     inkscape:zoom="0.98994949"
     inkscape:pageshadow="2"
     inkscape:pageopacity="0.0"
     borderopacity="1.0"
     bordercolor="#666666"
     pagecolor="#ffffff"
     id="base" />
  <metadata
     id="metadata5">
    <rdf:RDF>
      <cc:Work
         rdf:about="">
        <dc:format>image/svg+xml</dc:format>
        <dc:type
           rdf:resource="http://purl.org/dc/dcmitype/StillImage" />
        <dc:title></dc:title>
      </cc:Work>
    </rdf:RDF>
  </metadata>
  <g
     transform="translate(-91.517478,-123.0542)"
     id="layer1"
     inkscape:groupmode="layer"
     inkscape:label="Livello 1">
    <path
       style="fill:#d0d0d0;stroke-width:0.0846667"
       d="m 105.98846,175.22 c 0.0824,-0.0215 0.19668,-0.0201 0.254,0.003 0.0573,0.0232 -0.0101,0.0408 -0.14978,0.039 -0.1397,-0.002 -0.1866,-0.0207 -0.10422,-0.0422 z m -5.45224,-2.20616 c -0.10532,-0.13429 -0.10232,-0.13729 0.032,-0.032 0.14103,0.11061 0.18588,0.18013 0.1162,0.18013 -0.0176,0 -0.0843,-0.0667 -0.14817,-0.14816 z m -0.762003,-0.16934 c -0.105315,-0.13428 -0.10232,-0.13728 0.03197,-0.032 0.141033,0.1106 0.185884,0.18013 0.1162,0.18013 -0.01758,0 -0.08426,-0.0667 -0.148166,-0.14817 z m 11.864133,-0.23283 c 0.15797,-0.16298 0.30627,-0.29633 0.32955,-0.29633 0.0233,0 -0.0869,0.13335 -0.24488,0.29633 -0.15797,0.16298 -0.30627,0.29633 -0.32955,0.29633 -0.0233,0 0.0869,-0.13335 0.24488,-0.29633 z m 0.762,-0.24363 c 0,-0.0176 0.0667,-0.0843 0.14817,-0.14817 0.13428,-0.10532 0.13728,-0.10232 0.032,0.032 -0.11061,0.14103 -0.18014,0.18588 -0.18014,0.1162 z M 99.604883,172.0825 c -0.105314,-0.13428 -0.102319,-0.13728 0.03197,-0.032 0.141033,0.1106 0.185884,0.18013 0.1162,0.18013 -0.01758,0 -0.08426,-0.0667 -0.148167,-0.14817 z m 6.297297,0.005 c 0.0815,-0.0213 0.21484,-0.0213 0.29634,0 0.0815,0.0213 0.0148,0.0387 -0.14817,0.0387 -0.16298,0 -0.22966,-0.0174 -0.14817,-0.0387 z m -2.7413,-1.44447 c -0.10531,-0.13429 -0.10232,-0.13728 0.032,-0.032 0.14104,0.11061 0.18589,0.18014 0.1162,0.18014 -0.0176,0 -0.0843,-0.0667 -0.14816,-0.14817 z m -0.0315,-0.9525 c 0.0843,-0.0931 0.1723,-0.16933 0.19558,-0.16933 0.0233,0 -0.0266,0.0762 -0.11091,0.16933 -0.0843,0.0931 -0.1723,0.16933 -0.19558,0.16933 -0.0233,0 0.0266,-0.0762 0.11091,-0.16933 z m 8.28347,-7.95867 c 0,-0.34925 0.0149,-0.49212 0.0332,-0.3175 0.0183,0.17463 0.0183,0.46038 0,0.635 -0.0183,0.17463 -0.0332,0.0317 -0.0332,-0.3175 z m -3.79962,0.079 c -0.0307,-0.0497 -0.0376,-0.10846 -0.0155,-0.13066 0.0222,-0.0222 0.0629,0.0185 0.0905,0.0903 0.0572,0.1492 0.008,0.17544 -0.075,0.0404 z m -12.393497,-1.48309 c 0.0041,-0.0986 0.02412,-0.1187 0.05115,-0.0512 0.02446,0.0611 0.02145,0.13415 -0.0067,0.16228 -0.02813,0.0281 -0.04814,-0.0219 -0.04447,-0.11112 z m -0.02629,-0.89621 c 0.0492,-0.0492 0.13943,-0.0728 0.200512,-0.0524 0.06341,0.0211 0.02503,0.0595 -0.08945,0.0894 -0.14083,0.0368 -0.173887,0.0258 -0.111058,-0.037 z m 20.413467,-3.35124 c -0.10531,-0.13428 -0.10232,-0.13728 0.032,-0.032 0.14104,0.1106 0.18589,0.18013 0.1162,0.18013 -0.0176,0 -0.0843,-0.0667 -0.14816,-0.14817 z m -24.18422,-2.89983 c 0,-0.16298 0.01742,-0.22966 0.03872,-0.14817 0.0213,0.0815 0.0213,0.21484 0,0.29634 -0.0213,0.0815 -0.03872,0.0148 -0.03872,-0.14817 z m 20.46615,-1.37583 c 0.20761,-0.2212 0.38858,-0.40217 0.40217,-0.40217 0.0636,0 -0.004,0.076 -0.37746,0.42687 l -0.40217,0.37746 z m 8.39223,0.22577 c 0.004,-0.0986 0.0241,-0.11869 0.0511,-0.0512 0.0245,0.0611 0.0215,0.13415 -0.007,0.16228 -0.0281,0.0281 -0.0482,-0.0219 -0.0445,-0.11113 z m -3.74282,-8.73477 c -0.10532,-0.13429 -0.10232,-0.13728 0.032,-0.032 0.14103,0.11061 0.18588,0.18013 0.1162,0.18013 -0.0176,0 -0.0843,-0.0667 -0.14817,-0.14816 z m -20.055203,-1.23847 c 0,-0.0176 0.06667,-0.0843 0.148167,-0.14817 0.134286,-0.10531 0.137281,-0.10232 0.03197,0.032 -0.110606,0.14103 -0.180133,0.18588 -0.180133,0.1162 z m -1.253494,-7.96903 c 0.0017,-0.1397 0.0207,-0.1866 0.04217,-0.10423 0.02147,0.0824 0.02005,0.19668 -0.0031,0.254 -0.02319,0.0573 -0.04076,-0.0101 -0.03903,-0.14977 z m -0.0031,-0.889 c 0,-0.11642 0.01922,-0.16405 0.0427,-0.10584 0.02349,0.0582 0.02349,0.15346 0,0.21167 -0.02349,0.0582 -0.0427,0.0106 -0.0427,-0.10583 z m 2.526631,-6.46664 c 0,-0.0176 0.06668,-0.0842 0.148167,-0.14816 0.134286,-0.10532 0.137281,-0.10232 0.03197,0.032 -0.110606,0.14104 -0.180133,0.18589 -0.180133,0.1162 z m 15.617016,-0.66653 -0.33468,-0.35983 0.35983,0.33468 c 0.19791,0.18408 0.35983,0.346 0.35983,0.35983 0,0.0641 -0.0737,-4e-5 -0.38498,-0.33468 z m -14.601016,-0.34947 c 0,-0.0176 0.06668,-0.0842 0.148167,-0.14816 0.134286,-0.10532 0.137281,-0.10232 0.03197,0.032 -0.110606,0.14104 -0.180133,0.18589 -0.180133,0.1162 z m 6.842126,-2.7352 c 0.0611,-0.0245 0.13414,-0.0215 0.16228,0.007 0.0281,0.0281 -0.0219,0.0481 -0.11113,0.0445 -0.0986,-0.004 -0.11869,-0.0241 -0.0511,-0.0511 z m 0.37571,-5.3e-4 c 0.0815,-0.0213 0.21484,-0.0213 0.29633,0 0.0815,0.0213 0.0148,0.0387 -0.14817,0.0387 -0.16298,0 -0.22965,-0.0174 -0.14816,-0.0387 z"
       id="path56" />
    <path
       style="fill:#a0a0a0;stroke-width:0.0846667"
       d="m 103.45997,170.9395 -0.16129,-0.1905 0.1905,0.16129 c 0.10478,0.0887 0.1905,0.17444 0.1905,0.1905 0,0.0678 -0.0681,0.0177 -0.21971,-0.16129 z m 1.38388,-2.3209 c 0.0582,-0.0235 0.15346,-0.0235 0.21167,0 0.0582,0.0235 0.0106,0.0427 -0.10584,0.0427 -0.11641,0 -0.16404,-0.0192 -0.10583,-0.0427 z m 2.20662,-0.002 c 0.0611,-0.0245 0.13415,-0.0215 0.16228,0.007 0.0281,0.0281 -0.0219,0.0481 -0.11112,0.0445 -0.0986,-0.004 -0.1187,-0.0241 -0.0512,-0.0512 z m -13.602085,-5.4455 c 0,-0.11642 0.01922,-0.16405 0.0427,-0.10584 0.02349,0.0582 0.02349,0.15346 0,0.21167 -0.02349,0.0582 -0.0427,0.0106 -0.0427,-0.10583 z m 6.273702,-1.94734 c 0.01904,-0.0699 0.107671,-0.13585 0.196946,-0.14667 0.114047,-0.0138 0.124547,-0.004 0.03532,0.0339 -0.06985,0.0294 -0.158476,0.0954 -0.196946,0.14667 -0.04499,0.0599 -0.05759,0.0478 -0.03532,-0.0339 z m 1.671593,0.0203 c 0,-0.0509 -0.0667,-0.10999 -0.14816,-0.13129 -0.13358,-0.0349 -0.13408,-0.0397 -0.005,-0.0485 0.15275,-0.0105 0.28853,0.13703 0.20397,0.22159 -0.028,0.028 -0.0508,0.009 -0.0508,-0.0418 z m 9.03817,-0.16106 c 0.0582,-0.0235 0.15346,-0.0235 0.21167,0 0.0582,0.0235 0.0106,0.0427 -0.10584,0.0427 -0.11641,0 -0.16404,-0.0192 -0.10583,-0.0427 z m 1.35467,0 c 0.0582,-0.0235 0.15345,-0.0235 0.21166,0 0.0582,0.0235 0.0106,0.0427 -0.10583,0.0427 -0.11642,0 -0.16404,-0.0192 -0.10583,-0.0427 z m -11.34435,-0.34247 c 0.10532,-0.0203 0.25772,-0.0195 0.33867,0.002 0.081,0.0212 -0.005,0.0378 -0.19149,0.0368 -0.18627,-9.4e-4 -0.2525,-0.0183 -0.14718,-0.0385 z m 10.668,0 c 0.10532,-0.0203 0.25772,-0.0195 0.33867,0.002 0.081,0.0212 -0.005,0.0378 -0.19149,0.0368 -0.18627,-9.4e-4 -0.2525,-0.0183 -0.14718,-0.0385 z m 5.55444,-2.26845 c 2.5e-4,-0.46567 0.0144,-0.64537 0.0316,-0.39933 0.0172,0.24603 0.017,0.62703 -4.3e-4,0.84666 -0.0174,0.21963 -0.0314,0.0183 -0.0312,-0.44733 z m -0.80373,-2.13784 c -0.10531,-0.13428 -0.10232,-0.13728 0.032,-0.032 0.14104,0.1106 0.18589,0.18013 0.1162,0.18013 -0.0176,0 -0.0843,-0.0667 -0.14816,-0.14817 z m 4.42684,-2.2225 c 0,-0.11641 0.0192,-0.16404 0.0427,-0.10583 0.0235,0.0582 0.0235,0.15346 0,0.21167 -0.0235,0.0582 -0.0427,0.0106 -0.0427,-0.10584 z m -0.007,-1.82739 c 0.004,-0.0986 0.0241,-0.11869 0.0512,-0.0511 0.0245,0.0611 0.0215,0.13415 -0.007,0.16228 -0.0281,0.0281 -0.0481,-0.0219 -0.0445,-0.11113 z m -4.11835,-9.36977 -0.24867,-0.27517 0.27516,0.24867 c 0.2565,0.2318 0.31409,0.30166 0.24868,0.30166 -0.0146,0 -0.1384,-0.12382 -0.27517,-0.27516 z m -0.55581,-0.55034 c -0.10531,-0.13428 -0.10232,-0.13728 0.032,-0.032 0.14104,0.1106 0.18589,0.18013 0.1162,0.18013 -0.0176,0 -0.0843,-0.0667 -0.14816,-0.14817 z m -20.374221,-8.74183 c 0,-0.16298 0.01742,-0.22966 0.03872,-0.14817 0.0213,0.0815 0.0213,0.21484 0,0.29634 -0.0213,0.0815 -0.03872,0.0148 -0.03872,-0.14817 z m 2.901357,-7.28133 c 0.08428,-0.0931 0.172295,-0.16934 0.195578,-0.16934 0.02328,0 -0.02663,0.0762 -0.110911,0.16934 -0.08428,0.0931 -0.172295,0.16933 -0.195578,0.16933 -0.02328,0 0.02663,-0.0762 0.110911,-0.16933 z m 0.423334,-0.42334 c 0.08428,-0.0931 0.172294,-0.16933 0.195577,-0.16933 0.02328,0 -0.02663,0.0762 -0.110911,0.16933 -0.08428,0.0931 -0.172294,0.16934 -0.195578,0.16934 -0.02328,0 0.02663,-0.0762 0.110912,-0.16934 z"
       id="path54" />
    <path
       style="fill:#6f6f70;stroke-width:0.0846667"
       d="m 111.89235,172.86567 c 0.15797,-0.16298 0.30627,-0.29633 0.32955,-0.29633 0.0233,0 -0.0869,0.13335 -0.24488,0.29633 -0.15797,0.16298 -0.30627,0.29633 -0.32955,0.29633 -0.0233,0 0.0869,-0.13335 0.24488,-0.29633 z m -11.14754,-11.049 c 0,-0.34925 0.0149,-0.49213 0.0332,-0.3175 0.0183,0.17462 0.0183,0.46037 0,0.635 -0.0183,0.17462 -0.0332,0.0318 -0.0332,-0.3175 z m -0.35376,0.33867 c 0,-0.11642 0.0192,-0.16405 0.0427,-0.10584 0.0235,0.0582 0.0235,0.15346 0,0.21167 -0.0235,0.0582 -0.0427,0.0106 -0.0427,-0.10583 z m 0.01,-0.67734 c 0,-0.20955 0.0165,-0.29527 0.0367,-0.1905 0.0202,0.10478 0.0202,0.27623 0,0.381 -0.0202,0.10478 -0.0367,0.019 -0.0367,-0.1905 z m -0.29293,-0.3965 c 0.0611,-0.0245 0.13414,-0.0215 0.16227,0.007 0.0281,0.0281 -0.0219,0.0481 -0.11112,0.0445 -0.0986,-0.004 -0.1187,-0.0241 -0.0511,-0.0511 z m 0.84666,0 c 0.0611,-0.0245 0.13415,-0.0215 0.16228,0.007 0.0281,0.0281 -0.0219,0.0481 -0.11112,0.0445 -0.0986,-0.004 -0.1187,-0.0241 -0.0511,-0.0511 z m 9.82134,0 c 0.0611,-0.0245 0.13414,-0.0215 0.16227,0.007 0.0281,0.0281 -0.0219,0.0481 -0.11112,0.0445 -0.0986,-0.004 -0.1187,-0.0241 -0.0512,-0.0511 z m 0.762,0 c 0.0611,-0.0245 0.13414,-0.0215 0.16227,0.007 0.0281,0.0281 -0.0219,0.0481 -0.11112,0.0445 -0.0986,-0.004 -0.1187,-0.0241 -0.0512,-0.0511 z m -11.43,-0.33867 c 0.0611,-0.0245 0.13414,-0.0215 0.16227,0.007 0.0281,0.0281 -0.0219,0.0482 -0.11112,0.0445 -0.0986,-0.004 -0.1187,-0.0241 -0.0511,-0.0512 z m 0.84666,0 c 0.0611,-0.0245 0.13415,-0.0215 0.16228,0.007 0.0281,0.0281 -0.0219,0.0482 -0.11112,0.0445 -0.0986,-0.004 -0.1187,-0.0241 -0.0511,-0.0512 z m 9.73138,0.002 c 0.0582,-0.0235 0.15346,-0.0235 0.21166,0 0.0582,0.0235 0.0106,0.0427 -0.10583,0.0427 -0.11642,0 -0.16404,-0.0192 -0.10583,-0.0427 z m 0.93662,-0.002 c 0.0611,-0.0245 0.13415,-0.0215 0.16228,0.007 0.0281,0.0281 -0.0219,0.0482 -0.11112,0.0445 -0.0986,-0.004 -0.1187,-0.0241 -0.0512,-0.0512 z m 5.02458,-1.29683 c 0,-0.11641 0.0192,-0.16404 0.0427,-0.10583 0.0235,0.0582 0.0235,0.15346 0,0.21167 -0.0235,0.0582 -0.0427,0.0106 -0.0427,-0.10584 z m 0,-1.94733 c 0,-0.11642 0.0192,-0.16404 0.0427,-0.10583 0.0235,0.0582 0.0235,0.15345 0,0.21166 -0.0235,0.0582 -0.0427,0.0106 -0.0427,-0.10583 z m 3.63398,-3.69006 c 0.004,-0.0986 0.0241,-0.11869 0.0511,-0.0512 0.0245,0.0611 0.0215,0.13415 -0.007,0.16228 -0.0281,0.0281 -0.0482,-0.0219 -0.0445,-0.11113 z m 0.007,-1.22061 c 0,-0.11641 0.0192,-0.16404 0.0427,-0.10583 0.0235,0.0582 0.0235,0.15346 0,0.21167 -0.0235,0.0582 -0.0427,0.0106 -0.0427,-0.10584 z m -3.8167,-19.77672 c 0.004,-0.0986 0.0241,-0.11869 0.0511,-0.0512 0.0245,0.0611 0.0215,0.13414 -0.007,0.16228 -0.0281,0.0281 -0.0482,-0.0219 -0.0445,-0.11113 z"
       id="path52" />
    <path
       style="fill:#d82e2b;stroke-width:0.0846667"
       d="m 105.07558,171.90904 c -0.67658,-0.23395 -1.16039,-0.55972 -1.72047,-1.15844 -0.28715,-0.30697 -0.52209,-0.59101 -0.52209,-0.6312 0,-0.12836 0.94224,-0.9395 1.38902,-1.19576 0.52841,-0.30307 0.91456,-0.31625 1.41832,-0.0484 l 0.37723,0.20057 0.37621,-0.19675 c 0.57787,-0.30221 0.98037,-0.26909 1.57307,0.12942 0.27306,0.1836 0.68166,0.49803 0.90799,0.69874 l 0.4115,0.36491 -0.34806,0.46543 c -0.93765,1.25383 -2.54872,1.82584 -3.86272,1.37147 z"
       id="path50" />
    <path
       style="fill:#4e4f50;stroke-width:0.0846667"
       d="m 105.35714,175.5595 c 0.0611,-0.0245 0.13415,-0.0214 0.16228,0.007 0.0281,0.0281 -0.0219,0.0481 -0.11113,0.0445 -0.0986,-0.004 -0.11869,-0.0241 -0.0511,-0.0512 z m -5.15959,-2.37633 c -0.10532,-0.13429 -0.10232,-0.13728 0.032,-0.032 0.14103,0.11061 0.18588,0.18014 0.1162,0.18014 -0.0176,0 -0.0843,-0.0667 -0.14817,-0.14817 z m -0.208911,-0.635 -0.161289,-0.1905 0.1905,0.16129 c 0.17902,0.15157 0.22904,0.21971 0.16129,0.21971 -0.0161,0 -0.10179,-0.0857 -0.190501,-0.1905 z m 8.855711,-10.34144 c 0,-0.0183 0.0591,-0.056 0.1314,-0.0837 0.0754,-0.0289 0.10933,-0.0147 0.0797,0.0333 -0.0497,0.0805 -0.21107,0.11899 -0.21107,0.0504 z m 7.43987,-5.44889 c -0.10532,-0.13429 -0.10232,-0.13728 0.032,-0.032 0.14103,0.11061 0.18588,0.18013 0.1162,0.18013 -0.0176,0 -0.0843,-0.0667 -0.14817,-0.14816 z m 4.01637,-3.53484 c 5e-4,-0.2794 0.0163,-0.38349 0.0351,-0.23131 0.0188,0.15217 0.0185,0.38077 -8.7e-4,0.508 -0.0193,0.12722 -0.0347,0.003 -0.0343,-0.27669 z M 95.382349,143.15804 c 0,-0.0176 0.06667,-0.0843 0.148167,-0.14817 0.134286,-0.10531 0.137281,-0.10232 0.03197,0.032 -0.110605,0.14103 -0.180133,0.18588 -0.180133,0.1162 z m 0.592667,-0.59267 c 0,-0.0176 0.06668,-0.0843 0.148167,-0.14817 0.134286,-0.10531 0.137281,-0.10232 0.03197,0.032 -0.110606,0.14103 -0.180133,0.18588 -0.180133,0.1162 z"
       id="path48" />
    <path
       style="fill:#2e2e2e;stroke-width:0.0846667"
       d="m 105.73401,175.55658 c 0.1287,-0.0195 0.3192,-0.0189 0.42334,0.001 0.10413,0.0201 -10e-4,0.036 -0.234,0.0354 -0.23283,-6.8e-4 -0.31803,-0.0171 -0.18934,-0.0365 z m -5.953552,-2.79674 -0.291775,-0.3175 0.3175,0.29177 c 0.174625,0.16048 0.317497,0.30335 0.317497,0.3175 0,0.0647 -0.0716,0.004 -0.343222,-0.29177 z m 0.546842,0.127 -0.16128,-0.1905 0.1905,0.16129 c 0.17902,0.15157 0.22904,0.21971 0.16128,0.21971 -0.0161,0 -0.10179,-0.0857 -0.1905,-0.1905 z m -0.63775,-0.635 c -0.105314,-0.13429 -0.10232,-0.13729 0.03197,-0.032 0.141034,0.11061 0.185884,0.18013 0.116201,0.18013 -0.01758,0 -0.08426,-0.0667 -0.148167,-0.14816 z m 16.95082,-12.34723 c 0.004,-0.0986 0.0241,-0.11869 0.0511,-0.0512 0.0245,0.0611 0.0215,0.13415 -0.007,0.16228 -0.0281,0.0281 -0.0481,-0.0219 -0.0445,-0.11113 z M 95.789808,159.3035 c 0.06112,-0.0245 0.134144,-0.0214 0.162278,0.007 0.02813,0.0281 -0.02187,0.0481 -0.111125,0.0445 -0.09863,-0.004 -0.118695,-0.0241 -0.05115,-0.0512 z m 20.748412,-2.29166 c -0.10532,-0.13429 -0.10232,-0.13728 0.032,-0.032 0.14103,0.11061 0.18588,0.18013 0.1162,0.18013 -0.0176,0 -0.0843,-0.0667 -0.14817,-0.14816 z m -25.043853,-4.64256 c 0.0041,-0.0986 0.02412,-0.11869 0.05115,-0.0512 0.02446,0.0611 0.02145,0.13414 -0.0067,0.16228 -0.02813,0.0281 -0.04814,-0.0219 -0.04447,-0.11113 z m 19.974653,-0.24694 c 0.10936,-0.11642 0.2179,-0.21167 0.24118,-0.21167 0.0233,0 -0.0472,0.0953 -0.15652,0.21167 -0.10937,0.11641 -0.2179,0.21166 -0.24118,0.21166 -0.0233,0 0.0472,-0.0953 0.15652,-0.21166 z m -15.705671,-9.35567 c 0.08428,-0.0931 0.172295,-0.16933 0.195578,-0.16933 0.02328,0 -0.02663,0.0762 -0.110911,0.16933 -0.08428,0.0931 -0.172294,0.16933 -0.195578,0.16933 -0.02328,0 0.02663,-0.0762 0.110911,-0.16933 z M 116.49213,133.665 c 3.4e-4,-0.32596 0.0157,-0.44894 0.034,-0.27328 0.0183,0.17567 0.018,0.44237 -6.7e-4,0.59267 -0.0187,0.1503 -0.0337,0.007 -0.0333,-0.31939 z m -2.83258,-7.21783 c -0.10531,-0.13429 -0.10232,-0.13728 0.032,-0.032 0.14103,0.11061 0.18588,0.18014 0.1162,0.18014 -0.0176,0 -0.0843,-0.0667 -0.14817,-0.14817 z m -0.59267,-0.59267 c -0.10531,-0.13428 -0.10232,-0.13728 0.032,-0.032 0.14104,0.1106 0.18589,0.18013 0.1162,0.18013 -0.0176,0 -0.0843,-0.0667 -0.14816,-0.14817 z"
       id="path46" />
    <path
       style="fill:#040405;stroke-width:0.0846667"
       d="m 104.14736,175.35958 c -3.71185,-0.93887 -6.982342,-4.89145 -8.447194,-10.20893 -0.244777,-0.88855 -0.283434,-0.96923 -0.441216,-0.92086 -0.475498,0.14577 -0.854836,0.13329 -1.126208,-0.037 -0.777788,-0.4882 -0.801545,-1.53389 -0.0456,-2.00719 0.130281,-0.0816 0.251274,-0.15836 0.268872,-0.17065 0.0176,-0.0123 -0.205747,-0.38935 -0.496324,-0.8379 -1.707179,-2.63533 -2.558134,-6.0018 -2.295244,-9.08023 0.256602,-3.00479 1.187225,-5.46006 2.974803,-7.84844 0.669138,-0.89404 1.968774,-2.18001 2.896268,-2.86582 0.360892,-0.26685 0.656167,-0.51514 0.656167,-0.55176 0,-0.0366 -0.09904,-0.15894 -0.22009,-0.27183 -0.384355,-0.35846 -1.313987,-1.83527 -1.65894,-2.6354 -1.755866,-4.07276 -0.894273,-8.645 2.214974,-11.75425 1.903872,-1.90387 4.229182,-2.93557 6.986632,-3.09985 1.90888,-0.11372 4.09586,0.41353 5.76938,1.39092 2.72208,1.58977 4.5777,4.23118 5.15785,7.34199 0.21338,1.14418 0.13597,3.34405 -0.15693,4.45935 -0.38539,1.46751 -1.05308,2.80107 -1.99744,3.98945 l -0.49538,0.62338 0.68476,0.50158 c 0.37661,0.27586 1.07072,0.88257 1.54247,1.34824 2.14183,2.11424 3.5114,4.65927 4.1061,7.63028 0.23146,1.1563 0.31462,3.39099 0.17046,4.58041 -0.27472,2.26661 -1.10905,4.55082 -2.32668,6.36998 -0.26024,0.3888 -0.47316,0.716 -0.47316,0.72711 0,0.0111 0.0935,0.0437 0.20785,0.0724 0.35476,0.089 0.67138,0.59618 0.67138,1.07536 0,0.88239 -0.76606,1.35443 -1.70371,1.04984 -0.12896,-0.0419 -0.20005,-0.0247 -0.22261,0.0539 -0.0182,0.0635 -0.17343,0.60974 -0.3449,1.21389 -1.39752,4.92402 -4.38788,8.60173 -7.92135,9.74213 -0.6257,0.20193 -0.88549,0.23608 -1.98967,0.26154 -1.06134,0.0245 -1.38095,0.001 -1.94532,-0.14154 z m 3.68099,-0.3324 c 2.42011,-0.69517 4.67378,-2.71412 6.28599,-5.63129 1.60567,-2.90536 2.46541,-6.3842 2.57771,-10.43044 l 0.0498,-1.79288 -0.77142,-0.83178 c -1.00524,-1.08391 -1.99913,-2.36273 -2.81795,-3.62579 -0.36226,-0.5588 -0.70825,-1.08266 -0.76887,-1.16415 -0.10016,-0.13463 -0.19135,-0.0736 -0.99922,0.66895 -3.61253,3.32031 -8.48378,5.82763 -13.123333,6.75481 -0.869564,0.17377 -2.539149,0.38635 -3.036781,0.38666 -0.127743,7e-5 -0.111749,0.31478 0.124786,2.4554 0.413954,3.74625 1.905821,7.48027 3.993916,9.99644 1.494822,1.80127 3.235302,2.92345 5.183412,3.34203 0.80158,0.17223 2.48388,0.10704 3.302,-0.12796 z m -7.31186,-12.59192 c -0.0298,-0.0298 -0.0541,-0.3526 -0.0541,-0.71737 v -0.66322 h -0.37587 -0.375875 l -0.05741,0.5826 c -0.06296,0.63889 -0.150032,0.86316 -0.283066,0.72903 -0.05394,-0.0544 -0.05536,-0.30531 -0.004,-0.7124 0.04359,-0.34563 0.06995,-0.63656 0.05858,-0.64649 -0.01137,-0.01 -0.175145,-0.0436 -0.363937,-0.0747 l -0.343258,-0.0566 -0.150796,0.63964 c -0.09994,0.42393 -0.19119,0.63965 -0.270575,0.63965 -0.151527,0 -0.149851,-0.17681 0.0072,-0.762 0.06875,-0.25612 0.125443,-0.49129 0.125995,-0.5226 0.0015,-0.0846 -0.59362,-0.26531 -0.660834,-0.20064 -0.03181,0.0306 -0.153077,0.28867 -0.269494,0.57349 -0.202832,0.49624 -0.423333,0.73327 -0.423333,0.45507 0,-0.0727 0.09183,-0.37609 0.204061,-0.67427 l 0.204061,-0.54214 -0.216941,-0.0988 c -0.151291,-0.0689 -0.190082,-0.12571 -0.128185,-0.1876 0.0619,-0.0619 0.279386,-0.023 0.718694,0.12867 1.82955,0.63147 3.771783,0.61523 5.594283,-0.0468 0.34353,-0.12479 0.51844,-0.15179 0.58059,-0.0896 0.0622,0.0622 0.0352,0.11771 -0.0895,0.18443 -0.22658,0.12127 -0.22387,0.20375 0.0268,0.81598 0.19005,0.46417 0.18102,0.71993 -0.021,0.59508 -0.0465,-0.0287 -0.1733,-0.29974 -0.28178,-0.60222 -0.10849,-0.30249 -0.23952,-0.54997 -0.2912,-0.54997 -0.1552,0 -0.6273,0.18177 -0.62622,0.24111 5.9e-4,0.0304 0.0572,0.26477 0.126,0.52089 0.15707,0.58519 0.15874,0.762 0.007,0.762 -0.0794,0 -0.17064,-0.21572 -0.27058,-0.63965 l -0.1508,-0.63964 -0.34325,0.0566 c -0.1888,0.0312 -0.35345,0.0657 -0.36591,0.0767 -0.0125,0.011 0.0169,0.29921 0.0653,0.64043 0.0618,0.43598 0.0612,0.64715 -0.002,0.71042 -0.14077,0.14076 -0.22556,-0.0707 -0.28982,-0.72296 l -0.0574,-0.5826 h -0.37587 -0.37587 v 0.67234 c 0,0.61983 -0.0635,0.84466 -0.19986,0.70825 z m 10.62741,-0.0462 c -0.0566,-0.0566 -0.0982,-0.36027 -0.0982,-0.71628 v -0.61807 h -0.33194 c -0.36752,0 -0.36256,-0.009 -0.47586,0.91017 -0.0387,0.31372 -0.092,0.4445 -0.18141,0.4445 -0.10702,0 -0.11752,-0.10962 -0.0678,-0.70714 l 0.0589,-0.70713 -0.32299,-0.0524 c -0.38039,-0.0617 -0.40237,-0.0361 -0.54455,0.63382 -0.0583,0.27453 -0.13858,0.51933 -0.17849,0.544 -0.18432,0.11391 -0.20672,-0.0942 -0.0712,-0.66138 l 0.14722,-0.6161 -0.22247,-0.10201 c -0.4176,-0.19149 -0.49135,-0.14414 -0.70168,0.45046 -0.1839,0.51989 -0.34258,0.72066 -0.46936,0.59387 -0.0287,-0.0287 0.0527,-0.31972 0.18092,-0.64662 l 0.23319,-0.59436 -0.19844,-0.16088 c -0.33947,-0.27522 -0.0987,-0.29892 0.59249,-0.0583 1.76866,0.61569 3.72585,0.61956 5.41371,0.0107 0.32405,-0.1169 0.6322,-0.21253 0.68477,-0.21253 0.10412,0 0.13594,0.25317 0.0321,0.25529 -0.0349,6.8e-4 -0.11196,0.0321 -0.17119,0.0696 -0.084,0.0533 -0.0608,0.19294 0.10583,0.63564 0.24601,0.65358 0.25648,0.73275 0.0969,0.73275 -0.0661,0 -0.20023,-0.22932 -0.30948,-0.52917 -0.10605,-0.29104 -0.22149,-0.56185 -0.25653,-0.6018 -0.10383,-0.11837 -0.6721,0.11006 -0.67097,0.2697 5.9e-4,0.0779 0.0572,0.35115 0.12599,0.60727 0.155,0.57745 0.15508,0.59267 0.003,0.59267 -0.11762,0 -0.2236,-0.2762 -0.35167,-0.91655 -0.0678,-0.33873 -0.10137,-0.35912 -0.4885,-0.2963 l -0.31303,0.0508 0.0584,0.71926 c 0.0484,0.59632 0.0381,0.71264 -0.06,0.68049 -0.076,-0.0249 -0.14902,-0.26399 -0.20388,-0.6674 l -0.0855,-0.62864 -0.35901,-0.026 -0.35902,-0.026 v 0.67721 c 0,0.6821 -0.0597,0.84764 -0.24044,0.66688 z"
       id="path44" />
  </g>
</svg>
